<svg width="512" height="512" viewBox="0 0 512 512" fill="none" xmlns="http://www.w3.org/2000/svg">
<rect x="0.5" y="0.5" width="511" height="511" rx="89.5" stroke="black"/>
<path d="M128.135 343C120.635 343 114.635 340.75 110.135 336.25C105.801 331.75 103.635 325.75 103.635 318.25V241.5H69.6348V219.75H103.635V179H129.385V219.75H166.135V241.5H129.385V313.75C129.385 318.75 131.718 321.25 136.385 321.25H162.135V343H128.135ZM362.078 346.5C353.245 346.5 345.328 345 338.328 342C331.495 339 325.995 334.583 321.828 328.75C317.828 322.917 315.828 315.833 315.828 307.5C315.828 299 317.828 292 321.828 286.5C325.995 280.833 331.578 276.583 338.578 273.75C345.745 270.917 353.828 269.5 362.828 269.5H400.328V261.5C400.328 254.333 398.161 248.583 393.828 244.25C389.495 239.917 382.828 237.75 373.828 237.75C364.995 237.75 358.245 239.833 353.578 244C348.911 248.167 345.828 253.583 344.328 260.25L320.328 252.5C322.328 245.833 325.495 239.833 329.828 234.5C334.328 229 340.245 224.583 347.578 221.25C354.911 217.917 363.745 216.25 374.078 216.25C390.078 216.25 402.661 220.333 411.828 228.5C420.995 236.667 425.578 248.25 425.578 263.25V314C425.578 319 427.911 321.5 432.578 321.5H443.078V343H423.828C417.995 343 413.245 341.5 409.578 338.5C405.911 335.5 404.078 331.417 404.078 326.25V325.5H400.328C398.995 328 396.995 330.917 394.328 334.25C391.661 337.583 387.745 340.5 382.578 343C377.411 345.333 370.578 346.5 362.078 346.5ZM365.828 325.25C376.161 325.25 384.495 322.333 390.828 316.5C397.161 310.5 400.328 302.333 400.328 292V289.5H364.328C357.495 289.5 351.995 291 347.828 294C343.661 296.833 341.578 301.083 341.578 306.75C341.578 312.417 343.745 316.917 348.078 320.25C352.411 323.583 358.328 325.25 365.828 325.25Z" fill="#FF5500"/>
<path d="M174.8 381L255.65 133.5H283.975L203.125 381H174.8Z" fill="#FF5500"/>
<path d="M226.8 381L307.65 133.5H335.975L255.125 381H226.8Z" fill="#FF5500"/>
</svg>
